<mxfile host="app.diagrams.net" modified="2020-12-03T04:45:04.815Z" agent="5.0 (Windows NT 10.0; Win64; x64) AppleWebKit/537.36 (KHTML, like Gecko) Chrome/86.0.4240.198 Safari/537.36 OPR/72.0.3815.400" etag="XfpX99b5g3TIOsLb6RXg" version="13.9.0" type="github">
  <diagram id="R2lEEEUBdFMjLlhIrx00" name="Page-1">
    <mxGraphModel dx="3694" dy="1610" grid="1" gridSize="10" guides="1" tooltips="1" connect="1" arrows="1" fold="1" page="1" pageScale="1" pageWidth="850" pageHeight="1100" math="0" shadow="0" extFonts="Permanent Marker^https://fonts.googleapis.com/css?family=Permanent+Marker">
      <root>
        <mxCell id="0" />
        <mxCell id="1" parent="0" />
        <mxCell id="C-vyLk0tnHw3VtMMgP7b-1" value="" style="edgeStyle=entityRelationEdgeStyle;endArrow=ERzeroToMany;startArrow=ERone;endFill=1;startFill=0;entryX=0;entryY=0.5;entryDx=0;entryDy=0;" parent="1" source="C-vyLk0tnHw3VtMMgP7b-24" target="C-vyLk0tnHw3VtMMgP7b-6" edge="1">
          <mxGeometry width="100" height="100" relative="1" as="geometry">
            <mxPoint x="111" y="760" as="sourcePoint" />
            <mxPoint x="211" y="660" as="targetPoint" />
          </mxGeometry>
        </mxCell>
        <mxCell id="C-vyLk0tnHw3VtMMgP7b-2" value="Coach" style="shape=table;startSize=30;container=1;collapsible=1;childLayout=tableLayout;fixedRows=1;rowLines=0;fontStyle=1;align=center;resizeLast=1;fillColor=#dae8fc;strokeColor=#6c8ebf;" parent="1" vertex="1">
          <mxGeometry x="271" y="70" width="240" height="180" as="geometry" />
        </mxCell>
        <mxCell id="C-vyLk0tnHw3VtMMgP7b-3" value="" style="shape=partialRectangle;collapsible=0;dropTarget=0;pointerEvents=0;fillColor=none;points=[[0,0.5],[1,0.5]];portConstraint=eastwest;top=0;left=0;right=0;bottom=1;" parent="C-vyLk0tnHw3VtMMgP7b-2" vertex="1">
          <mxGeometry y="30" width="240" height="30" as="geometry" />
        </mxCell>
        <mxCell id="C-vyLk0tnHw3VtMMgP7b-4" value="PK" style="shape=partialRectangle;overflow=hidden;connectable=0;fillColor=none;top=0;left=0;bottom=0;right=0;fontStyle=1;" parent="C-vyLk0tnHw3VtMMgP7b-3" vertex="1">
          <mxGeometry width="30" height="30" as="geometry" />
        </mxCell>
        <mxCell id="C-vyLk0tnHw3VtMMgP7b-5" value="coach_idÂ int NOT NULL " style="shape=partialRectangle;overflow=hidden;connectable=0;fillColor=none;top=0;left=0;bottom=0;right=0;align=left;spacingLeft=6;fontStyle=5;" parent="C-vyLk0tnHw3VtMMgP7b-3" vertex="1">
          <mxGeometry x="30" width="210" height="30" as="geometry" />
        </mxCell>
        <mxCell id="C-vyLk0tnHw3VtMMgP7b-6" value="" style="shape=partialRectangle;collapsible=0;dropTarget=0;pointerEvents=0;fillColor=none;points=[[0,0.5],[1,0.5]];portConstraint=eastwest;top=0;left=0;right=0;bottom=0;" parent="C-vyLk0tnHw3VtMMgP7b-2" vertex="1">
          <mxGeometry y="60" width="240" height="30" as="geometry" />
        </mxCell>
        <mxCell id="C-vyLk0tnHw3VtMMgP7b-7" value="FK1" style="shape=partialRectangle;overflow=hidden;connectable=0;fillColor=none;top=0;left=0;bottom=0;right=0;" parent="C-vyLk0tnHw3VtMMgP7b-6" vertex="1">
          <mxGeometry width="30" height="30" as="geometry" />
        </mxCell>
        <mxCell id="C-vyLk0tnHw3VtMMgP7b-8" value="AbstractUser_id int NOT NULL" style="shape=partialRectangle;overflow=hidden;connectable=0;fillColor=none;top=0;left=0;bottom=0;right=0;align=left;spacingLeft=6;" parent="C-vyLk0tnHw3VtMMgP7b-6" vertex="1">
          <mxGeometry x="30" width="210" height="30" as="geometry" />
        </mxCell>
        <mxCell id="--BRvfXDEVk3b3rCjcNm-38" value="" style="shape=partialRectangle;collapsible=0;dropTarget=0;pointerEvents=0;fillColor=none;points=[[0,0.5],[1,0.5]];portConstraint=eastwest;top=0;left=0;right=0;bottom=0;" vertex="1" parent="C-vyLk0tnHw3VtMMgP7b-2">
          <mxGeometry y="90" width="240" height="30" as="geometry" />
        </mxCell>
        <mxCell id="--BRvfXDEVk3b3rCjcNm-39" value="FK2" style="shape=partialRectangle;overflow=hidden;connectable=0;fillColor=none;top=0;left=0;bottom=0;right=0;" vertex="1" parent="--BRvfXDEVk3b3rCjcNm-38">
          <mxGeometry width="30" height="30" as="geometry" />
        </mxCell>
        <mxCell id="--BRvfXDEVk3b3rCjcNm-40" value="School_id int NOT NULL" style="shape=partialRectangle;overflow=hidden;connectable=0;fillColor=none;top=0;left=0;bottom=0;right=0;align=left;spacingLeft=6;" vertex="1" parent="--BRvfXDEVk3b3rCjcNm-38">
          <mxGeometry x="30" width="210" height="30" as="geometry" />
        </mxCell>
        <mxCell id="--BRvfXDEVk3b3rCjcNm-26" value="" style="shape=partialRectangle;collapsible=0;dropTarget=0;pointerEvents=0;fillColor=none;points=[[0,0.5],[1,0.5]];portConstraint=eastwest;top=0;left=0;right=0;bottom=0;" vertex="1" parent="C-vyLk0tnHw3VtMMgP7b-2">
          <mxGeometry y="120" width="240" height="30" as="geometry" />
        </mxCell>
        <mxCell id="--BRvfXDEVk3b3rCjcNm-27" value="" style="shape=partialRectangle;overflow=hidden;connectable=0;fillColor=none;top=0;left=0;bottom=0;right=0;" vertex="1" parent="--BRvfXDEVk3b3rCjcNm-26">
          <mxGeometry width="30" height="30" as="geometry" />
        </mxCell>
        <mxCell id="--BRvfXDEVk3b3rCjcNm-28" value="birthdate DATETIME NOT NULL" style="shape=partialRectangle;overflow=hidden;connectable=0;fillColor=none;top=0;left=0;bottom=0;right=0;align=left;spacingLeft=6;" vertex="1" parent="--BRvfXDEVk3b3rCjcNm-26">
          <mxGeometry x="30" width="210" height="30" as="geometry" />
        </mxCell>
        <mxCell id="--BRvfXDEVk3b3rCjcNm-41" value="" style="shape=partialRectangle;collapsible=0;dropTarget=0;pointerEvents=0;fillColor=none;points=[[0,0.5],[1,0.5]];portConstraint=eastwest;top=0;left=0;right=0;bottom=0;" vertex="1" parent="C-vyLk0tnHw3VtMMgP7b-2">
          <mxGeometry y="150" width="240" height="30" as="geometry" />
        </mxCell>
        <mxCell id="--BRvfXDEVk3b3rCjcNm-42" value="" style="shape=partialRectangle;overflow=hidden;connectable=0;fillColor=none;top=0;left=0;bottom=0;right=0;" vertex="1" parent="--BRvfXDEVk3b3rCjcNm-41">
          <mxGeometry width="30" height="30" as="geometry" />
        </mxCell>
        <mxCell id="--BRvfXDEVk3b3rCjcNm-43" value="omegaup_User VARCHAR(150)" style="shape=partialRectangle;overflow=hidden;connectable=0;fillColor=none;top=0;left=0;bottom=0;right=0;align=left;spacingLeft=6;" vertex="1" parent="--BRvfXDEVk3b3rCjcNm-41">
          <mxGeometry x="30" width="210" height="30" as="geometry" />
        </mxCell>
        <mxCell id="C-vyLk0tnHw3VtMMgP7b-23" value="AbstractUser" style="shape=table;startSize=30;container=1;collapsible=1;childLayout=tableLayout;fixedRows=1;rowLines=0;fontStyle=1;align=center;resizeLast=1;fillColor=#dae8fc;strokeColor=#6c8ebf;" parent="1" vertex="1">
          <mxGeometry x="-159" y="100" width="300" height="340" as="geometry" />
        </mxCell>
        <mxCell id="C-vyLk0tnHw3VtMMgP7b-24" value="" style="shape=partialRectangle;collapsible=0;dropTarget=0;pointerEvents=0;fillColor=none;points=[[0,0.5],[1,0.5]];portConstraint=eastwest;top=0;left=0;right=0;bottom=1;" parent="C-vyLk0tnHw3VtMMgP7b-23" vertex="1">
          <mxGeometry y="30" width="300" height="30" as="geometry" />
        </mxCell>
        <mxCell id="C-vyLk0tnHw3VtMMgP7b-25" value="PK" style="shape=partialRectangle;overflow=hidden;connectable=0;fillColor=none;top=0;left=0;bottom=0;right=0;fontStyle=1;" parent="C-vyLk0tnHw3VtMMgP7b-24" vertex="1">
          <mxGeometry width="30" height="30" as="geometry" />
        </mxCell>
        <mxCell id="C-vyLk0tnHw3VtMMgP7b-26" value="AbstractUser_id int NOT NULL " style="shape=partialRectangle;overflow=hidden;connectable=0;fillColor=none;top=0;left=0;bottom=0;right=0;align=left;spacingLeft=6;fontStyle=5;" parent="C-vyLk0tnHw3VtMMgP7b-24" vertex="1">
          <mxGeometry x="30" width="270" height="30" as="geometry" />
        </mxCell>
        <mxCell id="C-vyLk0tnHw3VtMMgP7b-27" value="" style="shape=partialRectangle;collapsible=0;dropTarget=0;pointerEvents=0;fillColor=none;points=[[0,0.5],[1,0.5]];portConstraint=eastwest;top=0;left=0;right=0;bottom=0;" parent="C-vyLk0tnHw3VtMMgP7b-23" vertex="1">
          <mxGeometry y="60" width="300" height="30" as="geometry" />
        </mxCell>
        <mxCell id="C-vyLk0tnHw3VtMMgP7b-28" value="" style="shape=partialRectangle;overflow=hidden;connectable=0;fillColor=none;top=0;left=0;bottom=0;right=0;" parent="C-vyLk0tnHw3VtMMgP7b-27" vertex="1">
          <mxGeometry width="30" height="30" as="geometry" />
        </mxCell>
        <mxCell id="C-vyLk0tnHw3VtMMgP7b-29" value="username VARCHAR(150) UNIQUE NOT NULL" style="shape=partialRectangle;overflow=hidden;connectable=0;fillColor=none;top=0;left=0;bottom=0;right=0;align=left;spacingLeft=6;" parent="C-vyLk0tnHw3VtMMgP7b-27" vertex="1">
          <mxGeometry x="30" width="270" height="30" as="geometry" />
        </mxCell>
        <mxCell id="--BRvfXDEVk3b3rCjcNm-19" value="" style="shape=partialRectangle;collapsible=0;dropTarget=0;pointerEvents=0;fillColor=none;points=[[0,0.5],[1,0.5]];portConstraint=eastwest;top=0;left=0;right=0;bottom=0;" vertex="1" parent="C-vyLk0tnHw3VtMMgP7b-23">
          <mxGeometry y="90" width="300" height="30" as="geometry" />
        </mxCell>
        <mxCell id="--BRvfXDEVk3b3rCjcNm-20" value="" style="shape=partialRectangle;overflow=hidden;connectable=0;fillColor=none;top=0;left=0;bottom=0;right=0;" vertex="1" parent="--BRvfXDEVk3b3rCjcNm-19">
          <mxGeometry width="30" height="30" as="geometry" />
        </mxCell>
        <mxCell id="--BRvfXDEVk3b3rCjcNm-21" value="password VARCHAR(128) NOT NULL" style="shape=partialRectangle;overflow=hidden;connectable=0;fillColor=none;top=0;left=0;bottom=0;right=0;align=left;spacingLeft=6;" vertex="1" parent="--BRvfXDEVk3b3rCjcNm-19">
          <mxGeometry x="30" width="270" height="30" as="geometry" />
        </mxCell>
        <mxCell id="--BRvfXDEVk3b3rCjcNm-7" value="" style="shape=partialRectangle;collapsible=0;dropTarget=0;pointerEvents=0;fillColor=none;points=[[0,0.5],[1,0.5]];portConstraint=eastwest;top=0;left=0;right=0;bottom=0;" vertex="1" parent="C-vyLk0tnHw3VtMMgP7b-23">
          <mxGeometry y="120" width="300" height="30" as="geometry" />
        </mxCell>
        <mxCell id="--BRvfXDEVk3b3rCjcNm-8" value="" style="shape=partialRectangle;overflow=hidden;connectable=0;fillColor=none;top=0;left=0;bottom=0;right=0;" vertex="1" parent="--BRvfXDEVk3b3rCjcNm-7">
          <mxGeometry width="30" height="30" as="geometry" />
        </mxCell>
        <mxCell id="--BRvfXDEVk3b3rCjcNm-9" value="email VARCHAR(150) NOT NULL" style="shape=partialRectangle;overflow=hidden;connectable=0;fillColor=none;top=0;left=0;bottom=0;right=0;align=left;spacingLeft=6;" vertex="1" parent="--BRvfXDEVk3b3rCjcNm-7">
          <mxGeometry x="30" width="270" height="30" as="geometry" />
        </mxCell>
        <mxCell id="--BRvfXDEVk3b3rCjcNm-1" value="" style="shape=partialRectangle;collapsible=0;dropTarget=0;pointerEvents=0;fillColor=none;points=[[0,0.5],[1,0.5]];portConstraint=eastwest;top=0;left=0;right=0;bottom=0;" vertex="1" parent="C-vyLk0tnHw3VtMMgP7b-23">
          <mxGeometry y="150" width="300" height="30" as="geometry" />
        </mxCell>
        <mxCell id="--BRvfXDEVk3b3rCjcNm-2" value="" style="shape=partialRectangle;overflow=hidden;connectable=0;fillColor=none;top=0;left=0;bottom=0;right=0;" vertex="1" parent="--BRvfXDEVk3b3rCjcNm-1">
          <mxGeometry width="30" height="30" as="geometry" />
        </mxCell>
        <mxCell id="--BRvfXDEVk3b3rCjcNm-3" value="first_name VARCHAR(150)" style="shape=partialRectangle;overflow=hidden;connectable=0;fillColor=none;top=0;left=0;bottom=0;right=0;align=left;spacingLeft=6;" vertex="1" parent="--BRvfXDEVk3b3rCjcNm-1">
          <mxGeometry x="30" width="270" height="30" as="geometry" />
        </mxCell>
        <mxCell id="--BRvfXDEVk3b3rCjcNm-4" value="" style="shape=partialRectangle;collapsible=0;dropTarget=0;pointerEvents=0;fillColor=none;points=[[0,0.5],[1,0.5]];portConstraint=eastwest;top=0;left=0;right=0;bottom=0;" vertex="1" parent="C-vyLk0tnHw3VtMMgP7b-23">
          <mxGeometry y="180" width="300" height="30" as="geometry" />
        </mxCell>
        <mxCell id="--BRvfXDEVk3b3rCjcNm-5" value="" style="shape=partialRectangle;overflow=hidden;connectable=0;fillColor=none;top=0;left=0;bottom=0;right=0;" vertex="1" parent="--BRvfXDEVk3b3rCjcNm-4">
          <mxGeometry width="30" height="30" as="geometry" />
        </mxCell>
        <mxCell id="--BRvfXDEVk3b3rCjcNm-6" value="last_name VARCHAR(150)Â " style="shape=partialRectangle;overflow=hidden;connectable=0;fillColor=none;top=0;left=0;bottom=0;right=0;align=left;spacingLeft=6;" vertex="1" parent="--BRvfXDEVk3b3rCjcNm-4">
          <mxGeometry x="30" width="270" height="30" as="geometry" />
        </mxCell>
        <mxCell id="--BRvfXDEVk3b3rCjcNm-13" value="" style="shape=partialRectangle;collapsible=0;dropTarget=0;pointerEvents=0;fillColor=none;points=[[0,0.5],[1,0.5]];portConstraint=eastwest;top=0;left=0;right=0;bottom=0;" vertex="1" parent="C-vyLk0tnHw3VtMMgP7b-23">
          <mxGeometry y="210" width="300" height="30" as="geometry" />
        </mxCell>
        <mxCell id="--BRvfXDEVk3b3rCjcNm-14" value="" style="shape=partialRectangle;overflow=hidden;connectable=0;fillColor=none;top=0;left=0;bottom=0;right=0;" vertex="1" parent="--BRvfXDEVk3b3rCjcNm-13">
          <mxGeometry width="30" height="30" as="geometry" />
        </mxCell>
        <mxCell id="--BRvfXDEVk3b3rCjcNm-15" value="is_active BOOLEAN DEFAULT TRUE" style="shape=partialRectangle;overflow=hidden;connectable=0;fillColor=none;top=0;left=0;bottom=0;right=0;align=left;spacingLeft=6;" vertex="1" parent="--BRvfXDEVk3b3rCjcNm-13">
          <mxGeometry x="30" width="270" height="30" as="geometry" />
        </mxCell>
        <mxCell id="--BRvfXDEVk3b3rCjcNm-10" value="" style="shape=partialRectangle;collapsible=0;dropTarget=0;pointerEvents=0;fillColor=none;points=[[0,0.5],[1,0.5]];portConstraint=eastwest;top=0;left=0;right=0;bottom=0;" vertex="1" parent="C-vyLk0tnHw3VtMMgP7b-23">
          <mxGeometry y="240" width="300" height="30" as="geometry" />
        </mxCell>
        <mxCell id="--BRvfXDEVk3b3rCjcNm-11" value="" style="shape=partialRectangle;overflow=hidden;connectable=0;fillColor=none;top=0;left=0;bottom=0;right=0;" vertex="1" parent="--BRvfXDEVk3b3rCjcNm-10">
          <mxGeometry width="30" height="30" as="geometry" />
        </mxCell>
        <mxCell id="--BRvfXDEVk3b3rCjcNm-12" value="is_staff BOOLEAN DEFAULT FALSE" style="shape=partialRectangle;overflow=hidden;connectable=0;fillColor=none;top=0;left=0;bottom=0;right=0;align=left;spacingLeft=6;" vertex="1" parent="--BRvfXDEVk3b3rCjcNm-10">
          <mxGeometry x="30" width="270" height="30" as="geometry" />
        </mxCell>
        <mxCell id="--BRvfXDEVk3b3rCjcNm-16" value="" style="shape=partialRectangle;collapsible=0;dropTarget=0;pointerEvents=0;fillColor=none;points=[[0,0.5],[1,0.5]];portConstraint=eastwest;top=0;left=0;right=0;bottom=0;" vertex="1" parent="C-vyLk0tnHw3VtMMgP7b-23">
          <mxGeometry y="270" width="300" height="30" as="geometry" />
        </mxCell>
        <mxCell id="--BRvfXDEVk3b3rCjcNm-17" value="" style="shape=partialRectangle;overflow=hidden;connectable=0;fillColor=none;top=0;left=0;bottom=0;right=0;" vertex="1" parent="--BRvfXDEVk3b3rCjcNm-16">
          <mxGeometry width="30" height="30" as="geometry" />
        </mxCell>
        <mxCell id="--BRvfXDEVk3b3rCjcNm-18" value="date_joined DATETIMEÂ " style="shape=partialRectangle;overflow=hidden;connectable=0;fillColor=none;top=0;left=0;bottom=0;right=0;align=left;spacingLeft=6;" vertex="1" parent="--BRvfXDEVk3b3rCjcNm-16">
          <mxGeometry x="30" width="270" height="30" as="geometry" />
        </mxCell>
        <mxCell id="--BRvfXDEVk3b3rCjcNm-22" value="" style="shape=partialRectangle;collapsible=0;dropTarget=0;pointerEvents=0;fillColor=none;points=[[0,0.5],[1,0.5]];portConstraint=eastwest;top=0;left=0;right=0;bottom=0;" vertex="1" parent="C-vyLk0tnHw3VtMMgP7b-23">
          <mxGeometry y="300" width="300" height="30" as="geometry" />
        </mxCell>
        <mxCell id="--BRvfXDEVk3b3rCjcNm-23" value="" style="shape=partialRectangle;overflow=hidden;connectable=0;fillColor=none;top=0;left=0;bottom=0;right=0;" vertex="1" parent="--BRvfXDEVk3b3rCjcNm-22">
          <mxGeometry width="30" height="30" as="geometry" />
        </mxCell>
        <mxCell id="--BRvfXDEVk3b3rCjcNm-24" value="last_login DATETIMEÂ " style="shape=partialRectangle;overflow=hidden;connectable=0;fillColor=none;top=0;left=0;bottom=0;right=0;align=left;spacingLeft=6;" vertex="1" parent="--BRvfXDEVk3b3rCjcNm-22">
          <mxGeometry x="30" width="270" height="30" as="geometry" />
        </mxCell>
        <mxCell id="--BRvfXDEVk3b3rCjcNm-44" value="SchoolÂ  Â Â " style="shape=table;startSize=30;container=1;collapsible=1;childLayout=tableLayout;fixedRows=1;rowLines=0;fontStyle=1;align=center;resizeLast=1;fillColor=#dae8fc;strokeColor=#6c8ebf;" vertex="1" parent="1">
          <mxGeometry x="-129" y="510" width="240" height="150" as="geometry" />
        </mxCell>
        <mxCell id="--BRvfXDEVk3b3rCjcNm-45" value="" style="shape=partialRectangle;collapsible=0;dropTarget=0;pointerEvents=0;fillColor=none;points=[[0,0.5],[1,0.5]];portConstraint=eastwest;top=0;left=0;right=0;bottom=1;" vertex="1" parent="--BRvfXDEVk3b3rCjcNm-44">
          <mxGeometry y="30" width="240" height="30" as="geometry" />
        </mxCell>
        <mxCell id="--BRvfXDEVk3b3rCjcNm-46" value="PK" style="shape=partialRectangle;overflow=hidden;connectable=0;fillColor=none;top=0;left=0;bottom=0;right=0;fontStyle=1;" vertex="1" parent="--BRvfXDEVk3b3rCjcNm-45">
          <mxGeometry width="30" height="30" as="geometry" />
        </mxCell>
        <mxCell id="--BRvfXDEVk3b3rCjcNm-47" value="school_idÂ int NOT NULL " style="shape=partialRectangle;overflow=hidden;connectable=0;fillColor=none;top=0;left=0;bottom=0;right=0;align=left;spacingLeft=6;fontStyle=5;" vertex="1" parent="--BRvfXDEVk3b3rCjcNm-45">
          <mxGeometry x="30" width="210" height="30" as="geometry" />
        </mxCell>
        <mxCell id="--BRvfXDEVk3b3rCjcNm-60" value="" style="shape=partialRectangle;collapsible=0;dropTarget=0;pointerEvents=0;fillColor=none;points=[[0,0.5],[1,0.5]];portConstraint=eastwest;top=0;left=0;right=0;bottom=0;" vertex="1" parent="--BRvfXDEVk3b3rCjcNm-44">
          <mxGeometry y="60" width="240" height="30" as="geometry" />
        </mxCell>
        <mxCell id="--BRvfXDEVk3b3rCjcNm-61" value="" style="shape=partialRectangle;overflow=hidden;connectable=0;fillColor=none;top=0;left=0;bottom=0;right=0;" vertex="1" parent="--BRvfXDEVk3b3rCjcNm-60">
          <mxGeometry width="30" height="30" as="geometry" />
        </mxCell>
        <mxCell id="--BRvfXDEVk3b3rCjcNm-62" value="name VARCHAR(150)" style="shape=partialRectangle;overflow=hidden;connectable=0;fillColor=none;top=0;left=0;bottom=0;right=0;align=left;spacingLeft=6;" vertex="1" parent="--BRvfXDEVk3b3rCjcNm-60">
          <mxGeometry x="30" width="210" height="30" as="geometry" />
        </mxCell>
        <mxCell id="--BRvfXDEVk3b3rCjcNm-63" value="" style="shape=partialRectangle;collapsible=0;dropTarget=0;pointerEvents=0;fillColor=none;points=[[0,0.5],[1,0.5]];portConstraint=eastwest;top=0;left=0;right=0;bottom=0;" vertex="1" parent="--BRvfXDEVk3b3rCjcNm-44">
          <mxGeometry y="90" width="240" height="30" as="geometry" />
        </mxCell>
        <mxCell id="--BRvfXDEVk3b3rCjcNm-64" value="" style="shape=partialRectangle;overflow=hidden;connectable=0;fillColor=none;top=0;left=0;bottom=0;right=0;" vertex="1" parent="--BRvfXDEVk3b3rCjcNm-63">
          <mxGeometry width="30" height="30" as="geometry" />
        </mxCell>
        <mxCell id="--BRvfXDEVk3b3rCjcNm-65" value="principal_name VARCHAR(10)" style="shape=partialRectangle;overflow=hidden;connectable=0;fillColor=none;top=0;left=0;bottom=0;right=0;align=left;spacingLeft=6;" vertex="1" parent="--BRvfXDEVk3b3rCjcNm-63">
          <mxGeometry x="30" width="210" height="30" as="geometry" />
        </mxCell>
        <mxCell id="--BRvfXDEVk3b3rCjcNm-66" value="" style="shape=partialRectangle;collapsible=0;dropTarget=0;pointerEvents=0;fillColor=none;points=[[0,0.5],[1,0.5]];portConstraint=eastwest;top=0;left=0;right=0;bottom=0;" vertex="1" parent="--BRvfXDEVk3b3rCjcNm-44">
          <mxGeometry y="120" width="240" height="30" as="geometry" />
        </mxCell>
        <mxCell id="--BRvfXDEVk3b3rCjcNm-67" value="" style="shape=partialRectangle;overflow=hidden;connectable=0;fillColor=none;top=0;left=0;bottom=0;right=0;" vertex="1" parent="--BRvfXDEVk3b3rCjcNm-66">
          <mxGeometry width="30" height="30" as="geometry" />
        </mxCell>
        <mxCell id="--BRvfXDEVk3b3rCjcNm-68" value="principal_email VARCHAR(150)" style="shape=partialRectangle;overflow=hidden;connectable=0;fillColor=none;top=0;left=0;bottom=0;right=0;align=left;spacingLeft=6;" vertex="1" parent="--BRvfXDEVk3b3rCjcNm-66">
          <mxGeometry x="30" width="210" height="30" as="geometry" />
        </mxCell>
        <mxCell id="--BRvfXDEVk3b3rCjcNm-73" value="Post" style="shape=table;startSize=30;container=1;collapsible=1;childLayout=tableLayout;fixedRows=1;rowLines=0;fontStyle=1;align=center;resizeLast=1;fillColor=#dae8fc;strokeColor=#6c8ebf;" vertex="1" parent="1">
          <mxGeometry x="-470" y="260" width="230" height="280" as="geometry" />
        </mxCell>
        <mxCell id="--BRvfXDEVk3b3rCjcNm-74" value="" style="shape=partialRectangle;collapsible=0;dropTarget=0;pointerEvents=0;fillColor=none;points=[[0,0.5],[1,0.5]];portConstraint=eastwest;top=0;left=0;right=0;bottom=1;" vertex="1" parent="--BRvfXDEVk3b3rCjcNm-73">
          <mxGeometry y="30" width="230" height="30" as="geometry" />
        </mxCell>
        <mxCell id="--BRvfXDEVk3b3rCjcNm-75" value="PK" style="shape=partialRectangle;overflow=hidden;connectable=0;fillColor=none;top=0;left=0;bottom=0;right=0;fontStyle=1;" vertex="1" parent="--BRvfXDEVk3b3rCjcNm-74">
          <mxGeometry width="30" height="30" as="geometry" />
        </mxCell>
        <mxCell id="--BRvfXDEVk3b3rCjcNm-76" value="post_idÂ int NOT NULL " style="shape=partialRectangle;overflow=hidden;connectable=0;fillColor=none;top=0;left=0;bottom=0;right=0;align=left;spacingLeft=6;fontStyle=5;" vertex="1" parent="--BRvfXDEVk3b3rCjcNm-74">
          <mxGeometry x="30" width="200" height="30" as="geometry" />
        </mxCell>
        <mxCell id="--BRvfXDEVk3b3rCjcNm-77" value="" style="shape=partialRectangle;collapsible=0;dropTarget=0;pointerEvents=0;fillColor=none;points=[[0,0.5],[1,0.5]];portConstraint=eastwest;top=0;left=0;right=0;bottom=0;" vertex="1" parent="--BRvfXDEVk3b3rCjcNm-73">
          <mxGeometry y="60" width="230" height="30" as="geometry" />
        </mxCell>
        <mxCell id="--BRvfXDEVk3b3rCjcNm-78" value="FK1" style="shape=partialRectangle;overflow=hidden;connectable=0;fillColor=none;top=0;left=0;bottom=0;right=0;" vertex="1" parent="--BRvfXDEVk3b3rCjcNm-77">
          <mxGeometry width="30" height="30" as="geometry" />
        </mxCell>
        <mxCell id="--BRvfXDEVk3b3rCjcNm-79" value="profile_id int NOT NULL" style="shape=partialRectangle;overflow=hidden;connectable=0;fillColor=none;top=0;left=0;bottom=0;right=0;align=left;spacingLeft=6;" vertex="1" parent="--BRvfXDEVk3b3rCjcNm-77">
          <mxGeometry x="30" width="200" height="30" as="geometry" />
        </mxCell>
        <mxCell id="--BRvfXDEVk3b3rCjcNm-101" value="" style="shape=partialRectangle;collapsible=0;dropTarget=0;pointerEvents=0;fillColor=none;points=[[0,0.5],[1,0.5]];portConstraint=eastwest;top=0;left=0;right=0;bottom=0;" vertex="1" parent="--BRvfXDEVk3b3rCjcNm-73">
          <mxGeometry y="90" width="230" height="30" as="geometry" />
        </mxCell>
        <mxCell id="--BRvfXDEVk3b3rCjcNm-102" value="FK2" style="shape=partialRectangle;overflow=hidden;connectable=0;fillColor=none;top=0;left=0;bottom=0;right=0;" vertex="1" parent="--BRvfXDEVk3b3rCjcNm-101">
          <mxGeometry width="30" height="30" as="geometry" />
        </mxCell>
        <mxCell id="--BRvfXDEVk3b3rCjcNm-103" value="tag_id int NOT NULL" style="shape=partialRectangle;overflow=hidden;connectable=0;fillColor=none;top=0;left=0;bottom=0;right=0;align=left;spacingLeft=6;" vertex="1" parent="--BRvfXDEVk3b3rCjcNm-101">
          <mxGeometry x="30" width="200" height="30" as="geometry" />
        </mxCell>
        <mxCell id="--BRvfXDEVk3b3rCjcNm-83" value="" style="shape=partialRectangle;collapsible=0;dropTarget=0;pointerEvents=0;fillColor=none;points=[[0,0.5],[1,0.5]];portConstraint=eastwest;top=0;left=0;right=0;bottom=0;" vertex="1" parent="--BRvfXDEVk3b3rCjcNm-73">
          <mxGeometry y="120" width="230" height="30" as="geometry" />
        </mxCell>
        <mxCell id="--BRvfXDEVk3b3rCjcNm-84" value="" style="shape=partialRectangle;overflow=hidden;connectable=0;fillColor=none;top=0;left=0;bottom=0;right=0;" vertex="1" parent="--BRvfXDEVk3b3rCjcNm-83">
          <mxGeometry width="30" height="30" as="geometry" />
        </mxCell>
        <mxCell id="--BRvfXDEVk3b3rCjcNm-85" value="title VARCHAR(150) NOT NULL" style="shape=partialRectangle;overflow=hidden;connectable=0;fillColor=none;top=0;left=0;bottom=0;right=0;align=left;spacingLeft=6;" vertex="1" parent="--BRvfXDEVk3b3rCjcNm-83">
          <mxGeometry x="30" width="200" height="30" as="geometry" />
        </mxCell>
        <mxCell id="--BRvfXDEVk3b3rCjcNm-139" value="" style="shape=partialRectangle;collapsible=0;dropTarget=0;pointerEvents=0;fillColor=none;points=[[0,0.5],[1,0.5]];portConstraint=eastwest;top=0;left=0;right=0;bottom=0;" vertex="1" parent="--BRvfXDEVk3b3rCjcNm-73">
          <mxGeometry y="150" width="230" height="30" as="geometry" />
        </mxCell>
        <mxCell id="--BRvfXDEVk3b3rCjcNm-140" value="" style="shape=partialRectangle;overflow=hidden;connectable=0;fillColor=none;top=0;left=0;bottom=0;right=0;" vertex="1" parent="--BRvfXDEVk3b3rCjcNm-139">
          <mxGeometry width="30" height="30" as="geometry" />
        </mxCell>
        <mxCell id="--BRvfXDEVk3b3rCjcNm-141" value="publish_date DATETIME" style="shape=partialRectangle;overflow=hidden;connectable=0;fillColor=none;top=0;left=0;bottom=0;right=0;align=left;spacingLeft=6;" vertex="1" parent="--BRvfXDEVk3b3rCjcNm-139">
          <mxGeometry x="30" width="200" height="30" as="geometry" />
        </mxCell>
        <mxCell id="--BRvfXDEVk3b3rCjcNm-86" value="" style="shape=partialRectangle;collapsible=0;dropTarget=0;pointerEvents=0;fillColor=none;points=[[0,0.5],[1,0.5]];portConstraint=eastwest;top=0;left=0;right=0;bottom=0;" vertex="1" parent="--BRvfXDEVk3b3rCjcNm-73">
          <mxGeometry y="180" width="230" height="30" as="geometry" />
        </mxCell>
        <mxCell id="--BRvfXDEVk3b3rCjcNm-87" value="" style="shape=partialRectangle;overflow=hidden;connectable=0;fillColor=none;top=0;left=0;bottom=0;right=0;" vertex="1" parent="--BRvfXDEVk3b3rCjcNm-86">
          <mxGeometry width="30" height="30" as="geometry" />
        </mxCell>
        <mxCell id="--BRvfXDEVk3b3rCjcNm-88" value="publish_date DATETIME" style="shape=partialRectangle;overflow=hidden;connectable=0;fillColor=none;top=0;left=0;bottom=0;right=0;align=left;spacingLeft=6;" vertex="1" parent="--BRvfXDEVk3b3rCjcNm-86">
          <mxGeometry x="30" width="200" height="30" as="geometry" />
        </mxCell>
        <mxCell id="--BRvfXDEVk3b3rCjcNm-89" value="" style="shape=partialRectangle;collapsible=0;dropTarget=0;pointerEvents=0;fillColor=none;points=[[0,0.5],[1,0.5]];portConstraint=eastwest;top=0;left=0;right=0;bottom=0;" vertex="1" parent="--BRvfXDEVk3b3rCjcNm-73">
          <mxGeometry y="210" width="230" height="30" as="geometry" />
        </mxCell>
        <mxCell id="--BRvfXDEVk3b3rCjcNm-90" value="" style="shape=partialRectangle;overflow=hidden;connectable=0;fillColor=none;top=0;left=0;bottom=0;right=0;" vertex="1" parent="--BRvfXDEVk3b3rCjcNm-89">
          <mxGeometry width="30" height="30" as="geometry" />
        </mxCell>
        <mxCell id="--BRvfXDEVk3b3rCjcNm-91" value="content TEXT NOT NULL" style="shape=partialRectangle;overflow=hidden;connectable=0;fillColor=none;top=0;left=0;bottom=0;right=0;align=left;spacingLeft=6;" vertex="1" parent="--BRvfXDEVk3b3rCjcNm-89">
          <mxGeometry x="30" width="200" height="30" as="geometry" />
        </mxCell>
        <mxCell id="--BRvfXDEVk3b3rCjcNm-92" value="" style="shape=partialRectangle;collapsible=0;dropTarget=0;pointerEvents=0;fillColor=none;points=[[0,0.5],[1,0.5]];portConstraint=eastwest;top=0;left=0;right=0;bottom=0;" vertex="1" parent="--BRvfXDEVk3b3rCjcNm-73">
          <mxGeometry y="240" width="230" height="30" as="geometry" />
        </mxCell>
        <mxCell id="--BRvfXDEVk3b3rCjcNm-93" value="" style="shape=partialRectangle;overflow=hidden;connectable=0;fillColor=none;top=0;left=0;bottom=0;right=0;" vertex="1" parent="--BRvfXDEVk3b3rCjcNm-92">
          <mxGeometry width="30" height="30" as="geometry" />
        </mxCell>
        <mxCell id="--BRvfXDEVk3b3rCjcNm-94" value="active BOOLEAN DEFAULT TRUE" style="shape=partialRectangle;overflow=hidden;connectable=0;fillColor=none;top=0;left=0;bottom=0;right=0;align=left;spacingLeft=6;" vertex="1" parent="--BRvfXDEVk3b3rCjcNm-92">
          <mxGeometry x="30" width="200" height="30" as="geometry" />
        </mxCell>
        <mxCell id="--BRvfXDEVk3b3rCjcNm-105" value="Tags" style="shape=table;startSize=30;container=1;collapsible=1;childLayout=tableLayout;fixedRows=1;rowLines=0;fontStyle=1;align=center;resizeLast=1;fillColor=#dae8fc;strokeColor=#6c8ebf;" vertex="1" parent="1">
          <mxGeometry x="-470" y="560" width="230" height="120" as="geometry" />
        </mxCell>
        <mxCell id="--BRvfXDEVk3b3rCjcNm-106" value="" style="shape=partialRectangle;collapsible=0;dropTarget=0;pointerEvents=0;fillColor=none;points=[[0,0.5],[1,0.5]];portConstraint=eastwest;top=0;left=0;right=0;bottom=1;" vertex="1" parent="--BRvfXDEVk3b3rCjcNm-105">
          <mxGeometry y="30" width="230" height="30" as="geometry" />
        </mxCell>
        <mxCell id="--BRvfXDEVk3b3rCjcNm-107" value="PK" style="shape=partialRectangle;overflow=hidden;connectable=0;fillColor=none;top=0;left=0;bottom=0;right=0;fontStyle=1;" vertex="1" parent="--BRvfXDEVk3b3rCjcNm-106">
          <mxGeometry width="30" height="30" as="geometry" />
        </mxCell>
        <mxCell id="--BRvfXDEVk3b3rCjcNm-108" value="tag_idÂ int NOT NULL " style="shape=partialRectangle;overflow=hidden;connectable=0;fillColor=none;top=0;left=0;bottom=0;right=0;align=left;spacingLeft=6;fontStyle=5;" vertex="1" parent="--BRvfXDEVk3b3rCjcNm-106">
          <mxGeometry x="30" width="200" height="30" as="geometry" />
        </mxCell>
        <mxCell id="--BRvfXDEVk3b3rCjcNm-109" value="" style="shape=partialRectangle;collapsible=0;dropTarget=0;pointerEvents=0;fillColor=none;points=[[0,0.5],[1,0.5]];portConstraint=eastwest;top=0;left=0;right=0;bottom=0;" vertex="1" parent="--BRvfXDEVk3b3rCjcNm-105">
          <mxGeometry y="60" width="230" height="30" as="geometry" />
        </mxCell>
        <mxCell id="--BRvfXDEVk3b3rCjcNm-110" value="FK1" style="shape=partialRectangle;overflow=hidden;connectable=0;fillColor=none;top=0;left=0;bottom=0;right=0;" vertex="1" parent="--BRvfXDEVk3b3rCjcNm-109">
          <mxGeometry width="30" height="30" as="geometry" />
        </mxCell>
        <mxCell id="--BRvfXDEVk3b3rCjcNm-111" value="profile_id int NOT NULL" style="shape=partialRectangle;overflow=hidden;connectable=0;fillColor=none;top=0;left=0;bottom=0;right=0;align=left;spacingLeft=6;" vertex="1" parent="--BRvfXDEVk3b3rCjcNm-109">
          <mxGeometry x="30" width="200" height="30" as="geometry" />
        </mxCell>
        <mxCell id="--BRvfXDEVk3b3rCjcNm-112" value="" style="shape=partialRectangle;collapsible=0;dropTarget=0;pointerEvents=0;fillColor=none;points=[[0,0.5],[1,0.5]];portConstraint=eastwest;top=0;left=0;right=0;bottom=0;" vertex="1" parent="--BRvfXDEVk3b3rCjcNm-105">
          <mxGeometry y="90" width="230" height="30" as="geometry" />
        </mxCell>
        <mxCell id="--BRvfXDEVk3b3rCjcNm-113" value="" style="shape=partialRectangle;overflow=hidden;connectable=0;fillColor=none;top=0;left=0;bottom=0;right=0;" vertex="1" parent="--BRvfXDEVk3b3rCjcNm-112">
          <mxGeometry width="30" height="30" as="geometry" />
        </mxCell>
        <mxCell id="--BRvfXDEVk3b3rCjcNm-114" value="name VARCHAR(150)" style="shape=partialRectangle;overflow=hidden;connectable=0;fillColor=none;top=0;left=0;bottom=0;right=0;align=left;spacingLeft=6;" vertex="1" parent="--BRvfXDEVk3b3rCjcNm-112">
          <mxGeometry x="30" width="200" height="30" as="geometry" />
        </mxCell>
        <mxCell id="--BRvfXDEVk3b3rCjcNm-123" value="" style="endArrow=ERmany;html=1;entryX=-0.003;entryY=0.362;entryDx=0;entryDy=0;entryPerimeter=0;exitX=0;exitY=0.5;exitDx=0;exitDy=0;startArrow=ERmany;startFill=0;endFill=0;" edge="1" parent="1" source="--BRvfXDEVk3b3rCjcNm-106" target="--BRvfXDEVk3b3rCjcNm-101">
          <mxGeometry width="50" height="50" relative="1" as="geometry">
            <mxPoint x="-440" y="520" as="sourcePoint" />
            <mxPoint x="-390" y="470" as="targetPoint" />
            <Array as="points">
              <mxPoint x="-500" y="605" />
              <mxPoint x="-500" y="361" />
            </Array>
          </mxGeometry>
        </mxCell>
        <mxCell id="--BRvfXDEVk3b3rCjcNm-124" value="Comments" style="shape=table;startSize=30;container=1;collapsible=1;childLayout=tableLayout;fixedRows=1;rowLines=0;fontStyle=1;align=center;resizeLast=1;fillColor=#dae8fc;strokeColor=#6c8ebf;" vertex="1" parent="1">
          <mxGeometry x="-470" y="70" width="230" height="150" as="geometry" />
        </mxCell>
        <mxCell id="--BRvfXDEVk3b3rCjcNm-125" value="" style="shape=partialRectangle;collapsible=0;dropTarget=0;pointerEvents=0;fillColor=none;points=[[0,0.5],[1,0.5]];portConstraint=eastwest;top=0;left=0;right=0;bottom=1;" vertex="1" parent="--BRvfXDEVk3b3rCjcNm-124">
          <mxGeometry y="30" width="230" height="30" as="geometry" />
        </mxCell>
        <mxCell id="--BRvfXDEVk3b3rCjcNm-126" value="PK" style="shape=partialRectangle;overflow=hidden;connectable=0;fillColor=none;top=0;left=0;bottom=0;right=0;fontStyle=1;" vertex="1" parent="--BRvfXDEVk3b3rCjcNm-125">
          <mxGeometry width="30" height="30" as="geometry" />
        </mxCell>
        <mxCell id="--BRvfXDEVk3b3rCjcNm-127" value="comment_idÂ int NOT NULL " style="shape=partialRectangle;overflow=hidden;connectable=0;fillColor=none;top=0;left=0;bottom=0;right=0;align=left;spacingLeft=6;fontStyle=5;" vertex="1" parent="--BRvfXDEVk3b3rCjcNm-125">
          <mxGeometry x="30" width="200" height="30" as="geometry" />
        </mxCell>
        <mxCell id="--BRvfXDEVk3b3rCjcNm-131" value="" style="shape=partialRectangle;collapsible=0;dropTarget=0;pointerEvents=0;fillColor=none;points=[[0,0.5],[1,0.5]];portConstraint=eastwest;top=0;left=0;right=0;bottom=0;" vertex="1" parent="--BRvfXDEVk3b3rCjcNm-124">
          <mxGeometry y="60" width="230" height="30" as="geometry" />
        </mxCell>
        <mxCell id="--BRvfXDEVk3b3rCjcNm-132" value="PK1" style="shape=partialRectangle;overflow=hidden;connectable=0;fillColor=none;top=0;left=0;bottom=0;right=0;" vertex="1" parent="--BRvfXDEVk3b3rCjcNm-131">
          <mxGeometry width="30" height="30" as="geometry" />
        </mxCell>
        <mxCell id="--BRvfXDEVk3b3rCjcNm-133" value="post_id int NOT NULL" style="shape=partialRectangle;overflow=hidden;connectable=0;fillColor=none;top=0;left=0;bottom=0;right=0;align=left;spacingLeft=6;" vertex="1" parent="--BRvfXDEVk3b3rCjcNm-131">
          <mxGeometry x="30" width="200" height="30" as="geometry" />
        </mxCell>
        <mxCell id="--BRvfXDEVk3b3rCjcNm-134" value="" style="shape=partialRectangle;collapsible=0;dropTarget=0;pointerEvents=0;fillColor=none;points=[[0,0.5],[1,0.5]];portConstraint=eastwest;top=0;left=0;right=0;bottom=0;" vertex="1" parent="--BRvfXDEVk3b3rCjcNm-124">
          <mxGeometry y="90" width="230" height="30" as="geometry" />
        </mxCell>
        <mxCell id="--BRvfXDEVk3b3rCjcNm-135" value="PK2" style="shape=partialRectangle;overflow=hidden;connectable=0;fillColor=none;top=0;left=0;bottom=0;right=0;" vertex="1" parent="--BRvfXDEVk3b3rCjcNm-134">
          <mxGeometry width="30" height="30" as="geometry" />
        </mxCell>
        <mxCell id="--BRvfXDEVk3b3rCjcNm-136" value="profile_id int NOT NULL" style="shape=partialRectangle;overflow=hidden;connectable=0;fillColor=none;top=0;left=0;bottom=0;right=0;align=left;spacingLeft=6;" vertex="1" parent="--BRvfXDEVk3b3rCjcNm-134">
          <mxGeometry x="30" width="200" height="30" as="geometry" />
        </mxCell>
        <mxCell id="--BRvfXDEVk3b3rCjcNm-128" value="" style="shape=partialRectangle;collapsible=0;dropTarget=0;pointerEvents=0;fillColor=none;points=[[0,0.5],[1,0.5]];portConstraint=eastwest;top=0;left=0;right=0;bottom=0;" vertex="1" parent="--BRvfXDEVk3b3rCjcNm-124">
          <mxGeometry y="120" width="230" height="30" as="geometry" />
        </mxCell>
        <mxCell id="--BRvfXDEVk3b3rCjcNm-129" value="" style="shape=partialRectangle;overflow=hidden;connectable=0;fillColor=none;top=0;left=0;bottom=0;right=0;" vertex="1" parent="--BRvfXDEVk3b3rCjcNm-128">
          <mxGeometry width="30" height="30" as="geometry" />
        </mxCell>
        <mxCell id="--BRvfXDEVk3b3rCjcNm-130" value="coment TEXT" style="shape=partialRectangle;overflow=hidden;connectable=0;fillColor=none;top=0;left=0;bottom=0;right=0;align=left;spacingLeft=6;" vertex="1" parent="--BRvfXDEVk3b3rCjcNm-128">
          <mxGeometry x="30" width="200" height="30" as="geometry" />
        </mxCell>
        <mxCell id="--BRvfXDEVk3b3rCjcNm-137" value="" style="endArrow=ERmany;html=1;entryX=1;entryY=0.5;entryDx=0;entryDy=0;startArrow=ERone;startFill=0;endFill=0;exitX=0;exitY=0.5;exitDx=0;exitDy=0;" edge="1" parent="1" source="C-vyLk0tnHw3VtMMgP7b-27" target="--BRvfXDEVk3b3rCjcNm-134">
          <mxGeometry width="50" height="50" relative="1" as="geometry">
            <mxPoint x="-510" y="170" as="sourcePoint" />
            <mxPoint x="310" y="230" as="targetPoint" />
            <Array as="points">
              <mxPoint x="-180" y="175" />
            </Array>
          </mxGeometry>
        </mxCell>
        <mxCell id="--BRvfXDEVk3b3rCjcNm-138" value="" style="endArrow=ERmany;html=1;entryX=0;entryY=0.5;entryDx=0;entryDy=0;exitX=0;exitY=0.5;exitDx=0;exitDy=0;startArrow=ERone;startFill=0;endFill=0;" edge="1" parent="1" source="--BRvfXDEVk3b3rCjcNm-74" target="--BRvfXDEVk3b3rCjcNm-131">
          <mxGeometry width="50" height="50" relative="1" as="geometry">
            <mxPoint x="-520" y="210" as="sourcePoint" />
            <mxPoint x="-470" y="160" as="targetPoint" />
            <Array as="points">
              <mxPoint x="-500" y="305" />
              <mxPoint x="-500" y="145" />
            </Array>
          </mxGeometry>
        </mxCell>
        <mxCell id="--BRvfXDEVk3b3rCjcNm-147" value="Karel" style="shape=table;startSize=30;container=1;collapsible=1;childLayout=tableLayout;fixedRows=1;rowLines=0;fontStyle=1;align=center;resizeLast=1;fillColor=#f8cecc;strokeColor=#b85450;" vertex="1" parent="1">
          <mxGeometry x="-470" y="710" width="230" height="220" as="geometry" />
        </mxCell>
        <mxCell id="--BRvfXDEVk3b3rCjcNm-148" value="" style="shape=partialRectangle;collapsible=0;dropTarget=0;pointerEvents=0;fillColor=none;points=[[0,0.5],[1,0.5]];portConstraint=eastwest;top=0;left=0;right=0;bottom=1;" vertex="1" parent="--BRvfXDEVk3b3rCjcNm-147">
          <mxGeometry y="30" width="230" height="30" as="geometry" />
        </mxCell>
        <mxCell id="--BRvfXDEVk3b3rCjcNm-149" value="PK" style="shape=partialRectangle;overflow=hidden;connectable=0;fillColor=none;top=0;left=0;bottom=0;right=0;fontStyle=1;" vertex="1" parent="--BRvfXDEVk3b3rCjcNm-148">
          <mxGeometry width="30" height="30" as="geometry" />
        </mxCell>
        <mxCell id="--BRvfXDEVk3b3rCjcNm-150" value="vkarel_idÂ int NOT NULL " style="shape=partialRectangle;overflow=hidden;connectable=0;fillColor=none;top=0;left=0;bottom=0;right=0;align=left;spacingLeft=6;fontStyle=5;" vertex="1" parent="--BRvfXDEVk3b3rCjcNm-148">
          <mxGeometry x="30" width="200" height="30" as="geometry" />
        </mxCell>
        <mxCell id="--BRvfXDEVk3b3rCjcNm-160" value="" style="shape=partialRectangle;collapsible=0;dropTarget=0;pointerEvents=0;fillColor=none;points=[[0,0.5],[1,0.5]];portConstraint=eastwest;top=0;left=0;right=0;bottom=0;" vertex="1" parent="--BRvfXDEVk3b3rCjcNm-147">
          <mxGeometry y="60" width="230" height="30" as="geometry" />
        </mxCell>
        <mxCell id="--BRvfXDEVk3b3rCjcNm-161" value="FK1" style="shape=partialRectangle;overflow=hidden;connectable=0;fillColor=none;top=0;left=0;bottom=0;right=0;" vertex="1" parent="--BRvfXDEVk3b3rCjcNm-160">
          <mxGeometry width="30" height="30" as="geometry" />
        </mxCell>
        <mxCell id="--BRvfXDEVk3b3rCjcNm-162" value="karel_tag int NOT NULL" style="shape=partialRectangle;overflow=hidden;connectable=0;fillColor=none;top=0;left=0;bottom=0;right=0;align=left;spacingLeft=6;" vertex="1" parent="--BRvfXDEVk3b3rCjcNm-160">
          <mxGeometry x="30" width="200" height="30" as="geometry" />
        </mxCell>
        <mxCell id="--BRvfXDEVk3b3rCjcNm-182" value="" style="shape=partialRectangle;collapsible=0;dropTarget=0;pointerEvents=0;fillColor=none;points=[[0,0.5],[1,0.5]];portConstraint=eastwest;top=0;left=0;right=0;bottom=0;" vertex="1" parent="--BRvfXDEVk3b3rCjcNm-147">
          <mxGeometry y="90" width="230" height="30" as="geometry" />
        </mxCell>
        <mxCell id="--BRvfXDEVk3b3rCjcNm-183" value="FK2" style="shape=partialRectangle;overflow=hidden;connectable=0;fillColor=none;top=0;left=0;bottom=0;right=0;" vertex="1" parent="--BRvfXDEVk3b3rCjcNm-182">
          <mxGeometry width="30" height="30" as="geometry" />
        </mxCell>
        <mxCell id="--BRvfXDEVk3b3rCjcNm-184" value="problem_set int NOT NULL" style="shape=partialRectangle;overflow=hidden;connectable=0;fillColor=none;top=0;left=0;bottom=0;right=0;align=left;spacingLeft=6;" vertex="1" parent="--BRvfXDEVk3b3rCjcNm-182">
          <mxGeometry x="30" width="200" height="30" as="geometry" />
        </mxCell>
        <mxCell id="--BRvfXDEVk3b3rCjcNm-151" value="" style="shape=partialRectangle;collapsible=0;dropTarget=0;pointerEvents=0;fillColor=none;points=[[0,0.5],[1,0.5]];portConstraint=eastwest;top=0;left=0;right=0;bottom=0;" vertex="1" parent="--BRvfXDEVk3b3rCjcNm-147">
          <mxGeometry y="120" width="230" height="30" as="geometry" />
        </mxCell>
        <mxCell id="--BRvfXDEVk3b3rCjcNm-152" value="" style="shape=partialRectangle;overflow=hidden;connectable=0;fillColor=none;top=0;left=0;bottom=0;right=0;" vertex="1" parent="--BRvfXDEVk3b3rCjcNm-151">
          <mxGeometry width="30" height="30" as="geometry" />
        </mxCell>
        <mxCell id="--BRvfXDEVk3b3rCjcNm-153" value="order_video INT NOT NULL" style="shape=partialRectangle;overflow=hidden;connectable=0;fillColor=none;top=0;left=0;bottom=0;right=0;align=left;spacingLeft=6;" vertex="1" parent="--BRvfXDEVk3b3rCjcNm-151">
          <mxGeometry x="30" width="200" height="30" as="geometry" />
        </mxCell>
        <mxCell id="--BRvfXDEVk3b3rCjcNm-157" value="" style="shape=partialRectangle;collapsible=0;dropTarget=0;pointerEvents=0;fillColor=none;points=[[0,0.5],[1,0.5]];portConstraint=eastwest;top=0;left=0;right=0;bottom=0;" vertex="1" parent="--BRvfXDEVk3b3rCjcNm-147">
          <mxGeometry y="150" width="230" height="30" as="geometry" />
        </mxCell>
        <mxCell id="--BRvfXDEVk3b3rCjcNm-158" value="" style="shape=partialRectangle;overflow=hidden;connectable=0;fillColor=none;top=0;left=0;bottom=0;right=0;" vertex="1" parent="--BRvfXDEVk3b3rCjcNm-157">
          <mxGeometry width="30" height="30" as="geometry" />
        </mxCell>
        <mxCell id="--BRvfXDEVk3b3rCjcNm-159" value="img VARCHAR(150) NOT NULL" style="shape=partialRectangle;overflow=hidden;connectable=0;fillColor=none;top=0;left=0;bottom=0;right=0;align=left;spacingLeft=6;" vertex="1" parent="--BRvfXDEVk3b3rCjcNm-157">
          <mxGeometry x="30" width="200" height="30" as="geometry" />
        </mxCell>
        <mxCell id="--BRvfXDEVk3b3rCjcNm-154" value="" style="shape=partialRectangle;collapsible=0;dropTarget=0;pointerEvents=0;fillColor=none;points=[[0,0.5],[1,0.5]];portConstraint=eastwest;top=0;left=0;right=0;bottom=0;" vertex="1" parent="--BRvfXDEVk3b3rCjcNm-147">
          <mxGeometry y="180" width="230" height="30" as="geometry" />
        </mxCell>
        <mxCell id="--BRvfXDEVk3b3rCjcNm-155" value="" style="shape=partialRectangle;overflow=hidden;connectable=0;fillColor=none;top=0;left=0;bottom=0;right=0;" vertex="1" parent="--BRvfXDEVk3b3rCjcNm-154">
          <mxGeometry width="30" height="30" as="geometry" />
        </mxCell>
        <mxCell id="--BRvfXDEVk3b3rCjcNm-156" value="url VARCHAR(150) NOT NULL" style="shape=partialRectangle;overflow=hidden;connectable=0;fillColor=none;top=0;left=0;bottom=0;right=0;align=left;spacingLeft=6;" vertex="1" parent="--BRvfXDEVk3b3rCjcNm-154">
          <mxGeometry x="30" width="200" height="30" as="geometry" />
        </mxCell>
        <mxCell id="--BRvfXDEVk3b3rCjcNm-172" value="Karel_tag" style="shape=table;startSize=30;container=1;collapsible=1;childLayout=tableLayout;fixedRows=1;rowLines=0;fontStyle=1;align=center;resizeLast=1;fillColor=#f8cecc;strokeColor=#b85450;" vertex="1" parent="1">
          <mxGeometry x="-470" y="960" width="230" height="90" as="geometry" />
        </mxCell>
        <mxCell id="--BRvfXDEVk3b3rCjcNm-173" value="" style="shape=partialRectangle;collapsible=0;dropTarget=0;pointerEvents=0;fillColor=none;points=[[0,0.5],[1,0.5]];portConstraint=eastwest;top=0;left=0;right=0;bottom=1;" vertex="1" parent="--BRvfXDEVk3b3rCjcNm-172">
          <mxGeometry y="30" width="230" height="30" as="geometry" />
        </mxCell>
        <mxCell id="--BRvfXDEVk3b3rCjcNm-174" value="PK" style="shape=partialRectangle;overflow=hidden;connectable=0;fillColor=none;top=0;left=0;bottom=0;right=0;fontStyle=1;" vertex="1" parent="--BRvfXDEVk3b3rCjcNm-173">
          <mxGeometry width="30" height="30" as="geometry" />
        </mxCell>
        <mxCell id="--BRvfXDEVk3b3rCjcNm-175" value="karel_tag_idÂ int NOT NULL " style="shape=partialRectangle;overflow=hidden;connectable=0;fillColor=none;top=0;left=0;bottom=0;right=0;align=left;spacingLeft=6;fontStyle=5;" vertex="1" parent="--BRvfXDEVk3b3rCjcNm-173">
          <mxGeometry x="30" width="200" height="30" as="geometry" />
        </mxCell>
        <mxCell id="--BRvfXDEVk3b3rCjcNm-176" value="" style="shape=partialRectangle;collapsible=0;dropTarget=0;pointerEvents=0;fillColor=none;points=[[0,0.5],[1,0.5]];portConstraint=eastwest;top=0;left=0;right=0;bottom=0;" vertex="1" parent="--BRvfXDEVk3b3rCjcNm-172">
          <mxGeometry y="60" width="230" height="30" as="geometry" />
        </mxCell>
        <mxCell id="--BRvfXDEVk3b3rCjcNm-177" value="" style="shape=partialRectangle;overflow=hidden;connectable=0;fillColor=none;top=0;left=0;bottom=0;right=0;" vertex="1" parent="--BRvfXDEVk3b3rCjcNm-176">
          <mxGeometry width="30" height="30" as="geometry" />
        </mxCell>
        <mxCell id="--BRvfXDEVk3b3rCjcNm-178" value="name VARCHAR(150) NOT NULL" style="shape=partialRectangle;overflow=hidden;connectable=0;fillColor=none;top=0;left=0;bottom=0;right=0;align=left;spacingLeft=6;" vertex="1" parent="--BRvfXDEVk3b3rCjcNm-176">
          <mxGeometry x="30" width="200" height="30" as="geometry" />
        </mxCell>
        <mxCell id="--BRvfXDEVk3b3rCjcNm-185" value="Problems" style="shape=table;startSize=30;container=1;collapsible=1;childLayout=tableLayout;fixedRows=1;rowLines=0;fontStyle=1;align=center;resizeLast=1;fillColor=#f8cecc;strokeColor=#b85450;" vertex="1" parent="1">
          <mxGeometry x="-170" y="770" width="230" height="120" as="geometry" />
        </mxCell>
        <mxCell id="--BRvfXDEVk3b3rCjcNm-186" value="" style="shape=partialRectangle;collapsible=0;dropTarget=0;pointerEvents=0;fillColor=none;points=[[0,0.5],[1,0.5]];portConstraint=eastwest;top=0;left=0;right=0;bottom=1;" vertex="1" parent="--BRvfXDEVk3b3rCjcNm-185">
          <mxGeometry y="30" width="230" height="30" as="geometry" />
        </mxCell>
        <mxCell id="--BRvfXDEVk3b3rCjcNm-187" value="PK" style="shape=partialRectangle;overflow=hidden;connectable=0;fillColor=none;top=0;left=0;bottom=0;right=0;fontStyle=1;" vertex="1" parent="--BRvfXDEVk3b3rCjcNm-186">
          <mxGeometry width="30" height="30" as="geometry" />
        </mxCell>
        <mxCell id="--BRvfXDEVk3b3rCjcNm-188" value="problem int NOT NULL " style="shape=partialRectangle;overflow=hidden;connectable=0;fillColor=none;top=0;left=0;bottom=0;right=0;align=left;spacingLeft=6;fontStyle=5;" vertex="1" parent="--BRvfXDEVk3b3rCjcNm-186">
          <mxGeometry x="30" width="200" height="30" as="geometry" />
        </mxCell>
        <mxCell id="--BRvfXDEVk3b3rCjcNm-189" value="" style="shape=partialRectangle;collapsible=0;dropTarget=0;pointerEvents=0;fillColor=none;points=[[0,0.5],[1,0.5]];portConstraint=eastwest;top=0;left=0;right=0;bottom=0;" vertex="1" parent="--BRvfXDEVk3b3rCjcNm-185">
          <mxGeometry y="60" width="230" height="30" as="geometry" />
        </mxCell>
        <mxCell id="--BRvfXDEVk3b3rCjcNm-190" value="" style="shape=partialRectangle;overflow=hidden;connectable=0;fillColor=none;top=0;left=0;bottom=0;right=0;" vertex="1" parent="--BRvfXDEVk3b3rCjcNm-189">
          <mxGeometry width="30" height="30" as="geometry" />
        </mxCell>
        <mxCell id="--BRvfXDEVk3b3rCjcNm-191" value="name VARCHAR(150) NOT NULL" style="shape=partialRectangle;overflow=hidden;connectable=0;fillColor=none;top=0;left=0;bottom=0;right=0;align=left;spacingLeft=6;" vertex="1" parent="--BRvfXDEVk3b3rCjcNm-189">
          <mxGeometry x="30" width="200" height="30" as="geometry" />
        </mxCell>
        <mxCell id="--BRvfXDEVk3b3rCjcNm-192" value="" style="shape=partialRectangle;collapsible=0;dropTarget=0;pointerEvents=0;fillColor=none;points=[[0,0.5],[1,0.5]];portConstraint=eastwest;top=0;left=0;right=0;bottom=0;" vertex="1" parent="--BRvfXDEVk3b3rCjcNm-185">
          <mxGeometry y="90" width="230" height="30" as="geometry" />
        </mxCell>
        <mxCell id="--BRvfXDEVk3b3rCjcNm-193" value="" style="shape=partialRectangle;overflow=hidden;connectable=0;fillColor=none;top=0;left=0;bottom=0;right=0;" vertex="1" parent="--BRvfXDEVk3b3rCjcNm-192">
          <mxGeometry width="30" height="30" as="geometry" />
        </mxCell>
        <mxCell id="--BRvfXDEVk3b3rCjcNm-194" value="url VARCHAR(150) NOT NULL" style="shape=partialRectangle;overflow=hidden;connectable=0;fillColor=none;top=0;left=0;bottom=0;right=0;align=left;spacingLeft=6;" vertex="1" parent="--BRvfXDEVk3b3rCjcNm-192">
          <mxGeometry x="30" width="200" height="30" as="geometry" />
        </mxCell>
        <mxCell id="--BRvfXDEVk3b3rCjcNm-195" value="" style="endArrow=ERmany;html=1;entryX=-0.01;entryY=0.48;entryDx=0;entryDy=0;entryPerimeter=0;exitX=1;exitY=0.5;exitDx=0;exitDy=0;startArrow=ERone;startFill=0;endFill=0;" edge="1" parent="1" source="--BRvfXDEVk3b3rCjcNm-182" target="--BRvfXDEVk3b3rCjcNm-186">
          <mxGeometry width="50" height="50" relative="1" as="geometry">
            <mxPoint x="-270" y="830" as="sourcePoint" />
            <mxPoint x="-220" y="780" as="targetPoint" />
          </mxGeometry>
        </mxCell>
        <mxCell id="--BRvfXDEVk3b3rCjcNm-196" value="" style="endArrow=ERone;html=1;entryX=0;entryY=0.5;entryDx=0;entryDy=0;exitX=0;exitY=0.5;exitDx=0;exitDy=0;startArrow=ERmany;startFill=0;endFill=0;" edge="1" parent="1" source="--BRvfXDEVk3b3rCjcNm-173" target="--BRvfXDEVk3b3rCjcNm-160">
          <mxGeometry width="50" height="50" relative="1" as="geometry">
            <mxPoint x="-540" y="910" as="sourcePoint" />
            <mxPoint x="-490" y="860" as="targetPoint" />
            <Array as="points">
              <mxPoint x="-510" y="1005" />
              <mxPoint x="-510" y="785" />
            </Array>
          </mxGeometry>
        </mxCell>
        <mxCell id="--BRvfXDEVk3b3rCjcNm-197" value="Event" style="shape=table;startSize=30;container=1;collapsible=1;childLayout=tableLayout;fixedRows=1;rowLines=0;fontStyle=1;align=center;resizeLast=1;fillColor=#d5e8d4;strokeColor=#82b366;" vertex="1" parent="1">
          <mxGeometry x="250" y="710" width="230" height="180" as="geometry" />
        </mxCell>
        <mxCell id="--BRvfXDEVk3b3rCjcNm-198" value="" style="shape=partialRectangle;collapsible=0;dropTarget=0;pointerEvents=0;fillColor=none;points=[[0,0.5],[1,0.5]];portConstraint=eastwest;top=0;left=0;right=0;bottom=1;" vertex="1" parent="--BRvfXDEVk3b3rCjcNm-197">
          <mxGeometry y="30" width="230" height="30" as="geometry" />
        </mxCell>
        <mxCell id="--BRvfXDEVk3b3rCjcNm-199" value="PK" style="shape=partialRectangle;overflow=hidden;connectable=0;fillColor=none;top=0;left=0;bottom=0;right=0;fontStyle=1;" vertex="1" parent="--BRvfXDEVk3b3rCjcNm-198">
          <mxGeometry width="30" height="30" as="geometry" />
        </mxCell>
        <mxCell id="--BRvfXDEVk3b3rCjcNm-200" value="event_idÂ int NOT NULL " style="shape=partialRectangle;overflow=hidden;connectable=0;fillColor=none;top=0;left=0;bottom=0;right=0;align=left;spacingLeft=6;fontStyle=5;" vertex="1" parent="--BRvfXDEVk3b3rCjcNm-198">
          <mxGeometry x="30" width="200" height="30" as="geometry" />
        </mxCell>
        <mxCell id="--BRvfXDEVk3b3rCjcNm-201" value="" style="shape=partialRectangle;collapsible=0;dropTarget=0;pointerEvents=0;fillColor=none;points=[[0,0.5],[1,0.5]];portConstraint=eastwest;top=0;left=0;right=0;bottom=0;" vertex="1" parent="--BRvfXDEVk3b3rCjcNm-197">
          <mxGeometry y="60" width="230" height="30" as="geometry" />
        </mxCell>
        <mxCell id="--BRvfXDEVk3b3rCjcNm-202" value="" style="shape=partialRectangle;overflow=hidden;connectable=0;fillColor=none;top=0;left=0;bottom=0;right=0;" vertex="1" parent="--BRvfXDEVk3b3rCjcNm-201">
          <mxGeometry width="30" height="30" as="geometry" />
        </mxCell>
        <mxCell id="--BRvfXDEVk3b3rCjcNm-203" value="title VARCHAR (150) NOT NULL" style="shape=partialRectangle;overflow=hidden;connectable=0;fillColor=none;top=0;left=0;bottom=0;right=0;align=left;spacingLeft=6;" vertex="1" parent="--BRvfXDEVk3b3rCjcNm-201">
          <mxGeometry x="30" width="200" height="30" as="geometry" />
        </mxCell>
        <mxCell id="--BRvfXDEVk3b3rCjcNm-204" value="" style="shape=partialRectangle;collapsible=0;dropTarget=0;pointerEvents=0;fillColor=none;points=[[0,0.5],[1,0.5]];portConstraint=eastwest;top=0;left=0;right=0;bottom=0;" vertex="1" parent="--BRvfXDEVk3b3rCjcNm-197">
          <mxGeometry y="90" width="230" height="30" as="geometry" />
        </mxCell>
        <mxCell id="--BRvfXDEVk3b3rCjcNm-205" value="" style="shape=partialRectangle;overflow=hidden;connectable=0;fillColor=none;top=0;left=0;bottom=0;right=0;" vertex="1" parent="--BRvfXDEVk3b3rCjcNm-204">
          <mxGeometry width="30" height="30" as="geometry" />
        </mxCell>
        <mxCell id="--BRvfXDEVk3b3rCjcNm-206" value="description TEXT NOT NULL" style="shape=partialRectangle;overflow=hidden;connectable=0;fillColor=none;top=0;left=0;bottom=0;right=0;align=left;spacingLeft=6;" vertex="1" parent="--BRvfXDEVk3b3rCjcNm-204">
          <mxGeometry x="30" width="200" height="30" as="geometry" />
        </mxCell>
        <mxCell id="--BRvfXDEVk3b3rCjcNm-207" value="" style="shape=partialRectangle;collapsible=0;dropTarget=0;pointerEvents=0;fillColor=none;points=[[0,0.5],[1,0.5]];portConstraint=eastwest;top=0;left=0;right=0;bottom=0;" vertex="1" parent="--BRvfXDEVk3b3rCjcNm-197">
          <mxGeometry y="120" width="230" height="30" as="geometry" />
        </mxCell>
        <mxCell id="--BRvfXDEVk3b3rCjcNm-208" value="" style="shape=partialRectangle;overflow=hidden;connectable=0;fillColor=none;top=0;left=0;bottom=0;right=0;" vertex="1" parent="--BRvfXDEVk3b3rCjcNm-207">
          <mxGeometry width="30" height="30" as="geometry" />
        </mxCell>
        <mxCell id="--BRvfXDEVk3b3rCjcNm-209" value="date DATETIME" style="shape=partialRectangle;overflow=hidden;connectable=0;fillColor=none;top=0;left=0;bottom=0;right=0;align=left;spacingLeft=6;" vertex="1" parent="--BRvfXDEVk3b3rCjcNm-207">
          <mxGeometry x="30" width="200" height="30" as="geometry" />
        </mxCell>
        <mxCell id="--BRvfXDEVk3b3rCjcNm-213" value="" style="shape=partialRectangle;collapsible=0;dropTarget=0;pointerEvents=0;fillColor=none;points=[[0,0.5],[1,0.5]];portConstraint=eastwest;top=0;left=0;right=0;bottom=0;" vertex="1" parent="--BRvfXDEVk3b3rCjcNm-197">
          <mxGeometry y="150" width="230" height="30" as="geometry" />
        </mxCell>
        <mxCell id="--BRvfXDEVk3b3rCjcNm-214" value="" style="shape=partialRectangle;overflow=hidden;connectable=0;fillColor=none;top=0;left=0;bottom=0;right=0;" vertex="1" parent="--BRvfXDEVk3b3rCjcNm-213">
          <mxGeometry width="30" height="30" as="geometry" />
        </mxCell>
        <mxCell id="--BRvfXDEVk3b3rCjcNm-215" value="" style="shape=partialRectangle;overflow=hidden;connectable=0;fillColor=none;top=0;left=0;bottom=0;right=0;align=left;spacingLeft=6;" vertex="1" parent="--BRvfXDEVk3b3rCjcNm-213">
          <mxGeometry x="30" width="200" height="30" as="geometry" />
        </mxCell>
        <mxCell id="--BRvfXDEVk3b3rCjcNm-216" value="Student" style="shape=table;startSize=30;container=1;collapsible=1;childLayout=tableLayout;fixedRows=1;rowLines=0;fontStyle=1;align=center;resizeLast=1;fillColor=#dae8fc;strokeColor=#6c8ebf;" vertex="1" parent="1">
          <mxGeometry x="271" y="270" width="240" height="300" as="geometry" />
        </mxCell>
        <mxCell id="--BRvfXDEVk3b3rCjcNm-217" value="" style="shape=partialRectangle;collapsible=0;dropTarget=0;pointerEvents=0;fillColor=none;points=[[0,0.5],[1,0.5]];portConstraint=eastwest;top=0;left=0;right=0;bottom=1;" vertex="1" parent="--BRvfXDEVk3b3rCjcNm-216">
          <mxGeometry y="30" width="240" height="30" as="geometry" />
        </mxCell>
        <mxCell id="--BRvfXDEVk3b3rCjcNm-218" value="PK" style="shape=partialRectangle;overflow=hidden;connectable=0;fillColor=none;top=0;left=0;bottom=0;right=0;fontStyle=1;" vertex="1" parent="--BRvfXDEVk3b3rCjcNm-217">
          <mxGeometry width="30" height="30" as="geometry" />
        </mxCell>
        <mxCell id="--BRvfXDEVk3b3rCjcNm-219" value="profile_idÂ int NOT NULL " style="shape=partialRectangle;overflow=hidden;connectable=0;fillColor=none;top=0;left=0;bottom=0;right=0;align=left;spacingLeft=6;fontStyle=5;" vertex="1" parent="--BRvfXDEVk3b3rCjcNm-217">
          <mxGeometry x="30" width="210" height="30" as="geometry" />
        </mxCell>
        <mxCell id="--BRvfXDEVk3b3rCjcNm-220" value="" style="shape=partialRectangle;collapsible=0;dropTarget=0;pointerEvents=0;fillColor=none;points=[[0,0.5],[1,0.5]];portConstraint=eastwest;top=0;left=0;right=0;bottom=0;" vertex="1" parent="--BRvfXDEVk3b3rCjcNm-216">
          <mxGeometry y="60" width="240" height="30" as="geometry" />
        </mxCell>
        <mxCell id="--BRvfXDEVk3b3rCjcNm-221" value="FK1" style="shape=partialRectangle;overflow=hidden;connectable=0;fillColor=none;top=0;left=0;bottom=0;right=0;" vertex="1" parent="--BRvfXDEVk3b3rCjcNm-220">
          <mxGeometry width="30" height="30" as="geometry" />
        </mxCell>
        <mxCell id="--BRvfXDEVk3b3rCjcNm-222" value="AbstractUser_id int NOT NULL" style="shape=partialRectangle;overflow=hidden;connectable=0;fillColor=none;top=0;left=0;bottom=0;right=0;align=left;spacingLeft=6;" vertex="1" parent="--BRvfXDEVk3b3rCjcNm-220">
          <mxGeometry x="30" width="210" height="30" as="geometry" />
        </mxCell>
        <mxCell id="--BRvfXDEVk3b3rCjcNm-223" value="" style="shape=partialRectangle;collapsible=0;dropTarget=0;pointerEvents=0;fillColor=none;points=[[0,0.5],[1,0.5]];portConstraint=eastwest;top=0;left=0;right=0;bottom=0;" vertex="1" parent="--BRvfXDEVk3b3rCjcNm-216">
          <mxGeometry y="90" width="240" height="30" as="geometry" />
        </mxCell>
        <mxCell id="--BRvfXDEVk3b3rCjcNm-224" value="FK2" style="shape=partialRectangle;overflow=hidden;connectable=0;fillColor=none;top=0;left=0;bottom=0;right=0;" vertex="1" parent="--BRvfXDEVk3b3rCjcNm-223">
          <mxGeometry width="30" height="30" as="geometry" />
        </mxCell>
        <mxCell id="--BRvfXDEVk3b3rCjcNm-225" value="School_id int NOT NULL" style="shape=partialRectangle;overflow=hidden;connectable=0;fillColor=none;top=0;left=0;bottom=0;right=0;align=left;spacingLeft=6;" vertex="1" parent="--BRvfXDEVk3b3rCjcNm-223">
          <mxGeometry x="30" width="210" height="30" as="geometry" />
        </mxCell>
        <mxCell id="--BRvfXDEVk3b3rCjcNm-244" value="" style="shape=partialRectangle;collapsible=0;dropTarget=0;pointerEvents=0;fillColor=none;points=[[0,0.5],[1,0.5]];portConstraint=eastwest;top=0;left=0;right=0;bottom=0;" vertex="1" parent="--BRvfXDEVk3b3rCjcNm-216">
          <mxGeometry y="120" width="240" height="30" as="geometry" />
        </mxCell>
        <mxCell id="--BRvfXDEVk3b3rCjcNm-245" value="FK3" style="shape=partialRectangle;overflow=hidden;connectable=0;fillColor=none;top=0;left=0;bottom=0;right=0;" vertex="1" parent="--BRvfXDEVk3b3rCjcNm-244">
          <mxGeometry width="30" height="30" as="geometry" />
        </mxCell>
        <mxCell id="--BRvfXDEVk3b3rCjcNm-246" value="coach_id VARCHAR(150)" style="shape=partialRectangle;overflow=hidden;connectable=0;fillColor=none;top=0;left=0;bottom=0;right=0;align=left;spacingLeft=6;" vertex="1" parent="--BRvfXDEVk3b3rCjcNm-244">
          <mxGeometry x="30" width="210" height="30" as="geometry" />
        </mxCell>
        <mxCell id="--BRvfXDEVk3b3rCjcNm-229" value="" style="shape=partialRectangle;collapsible=0;dropTarget=0;pointerEvents=0;fillColor=none;points=[[0,0.5],[1,0.5]];portConstraint=eastwest;top=0;left=0;right=0;bottom=0;" vertex="1" parent="--BRvfXDEVk3b3rCjcNm-216">
          <mxGeometry y="150" width="240" height="30" as="geometry" />
        </mxCell>
        <mxCell id="--BRvfXDEVk3b3rCjcNm-230" value="" style="shape=partialRectangle;overflow=hidden;connectable=0;fillColor=none;top=0;left=0;bottom=0;right=0;" vertex="1" parent="--BRvfXDEVk3b3rCjcNm-229">
          <mxGeometry width="30" height="30" as="geometry" />
        </mxCell>
        <mxCell id="--BRvfXDEVk3b3rCjcNm-231" value="birthdate DATETIME NOT NULL" style="shape=partialRectangle;overflow=hidden;connectable=0;fillColor=none;top=0;left=0;bottom=0;right=0;align=left;spacingLeft=6;" vertex="1" parent="--BRvfXDEVk3b3rCjcNm-229">
          <mxGeometry x="30" width="210" height="30" as="geometry" />
        </mxCell>
        <mxCell id="--BRvfXDEVk3b3rCjcNm-232" value="" style="shape=partialRectangle;collapsible=0;dropTarget=0;pointerEvents=0;fillColor=none;points=[[0,0.5],[1,0.5]];portConstraint=eastwest;top=0;left=0;right=0;bottom=0;" vertex="1" parent="--BRvfXDEVk3b3rCjcNm-216">
          <mxGeometry y="180" width="240" height="30" as="geometry" />
        </mxCell>
        <mxCell id="--BRvfXDEVk3b3rCjcNm-233" value="" style="shape=partialRectangle;overflow=hidden;connectable=0;fillColor=none;top=0;left=0;bottom=0;right=0;" vertex="1" parent="--BRvfXDEVk3b3rCjcNm-232">
          <mxGeometry width="30" height="30" as="geometry" />
        </mxCell>
        <mxCell id="--BRvfXDEVk3b3rCjcNm-234" value="name_of_tutor VARCHAR(150)" style="shape=partialRectangle;overflow=hidden;connectable=0;fillColor=none;top=0;left=0;bottom=0;right=0;align=left;spacingLeft=6;" vertex="1" parent="--BRvfXDEVk3b3rCjcNm-232">
          <mxGeometry x="30" width="210" height="30" as="geometry" />
        </mxCell>
        <mxCell id="--BRvfXDEVk3b3rCjcNm-235" value="" style="shape=partialRectangle;collapsible=0;dropTarget=0;pointerEvents=0;fillColor=none;points=[[0,0.5],[1,0.5]];portConstraint=eastwest;top=0;left=0;right=0;bottom=0;" vertex="1" parent="--BRvfXDEVk3b3rCjcNm-216">
          <mxGeometry y="210" width="240" height="30" as="geometry" />
        </mxCell>
        <mxCell id="--BRvfXDEVk3b3rCjcNm-236" value="" style="shape=partialRectangle;overflow=hidden;connectable=0;fillColor=none;top=0;left=0;bottom=0;right=0;" vertex="1" parent="--BRvfXDEVk3b3rCjcNm-235">
          <mxGeometry width="30" height="30" as="geometry" />
        </mxCell>
        <mxCell id="--BRvfXDEVk3b3rCjcNm-237" value="phone_of_tutor VARCHAR(10)" style="shape=partialRectangle;overflow=hidden;connectable=0;fillColor=none;top=0;left=0;bottom=0;right=0;align=left;spacingLeft=6;" vertex="1" parent="--BRvfXDEVk3b3rCjcNm-235">
          <mxGeometry x="30" width="210" height="30" as="geometry" />
        </mxCell>
        <mxCell id="--BRvfXDEVk3b3rCjcNm-238" value="" style="shape=partialRectangle;collapsible=0;dropTarget=0;pointerEvents=0;fillColor=none;points=[[0,0.5],[1,0.5]];portConstraint=eastwest;top=0;left=0;right=0;bottom=0;" vertex="1" parent="--BRvfXDEVk3b3rCjcNm-216">
          <mxGeometry y="240" width="240" height="30" as="geometry" />
        </mxCell>
        <mxCell id="--BRvfXDEVk3b3rCjcNm-239" value="" style="shape=partialRectangle;overflow=hidden;connectable=0;fillColor=none;top=0;left=0;bottom=0;right=0;" vertex="1" parent="--BRvfXDEVk3b3rCjcNm-238">
          <mxGeometry width="30" height="30" as="geometry" />
        </mxCell>
        <mxCell id="--BRvfXDEVk3b3rCjcNm-240" value="email_of_tutor VARCHAR(150)" style="shape=partialRectangle;overflow=hidden;connectable=0;fillColor=none;top=0;left=0;bottom=0;right=0;align=left;spacingLeft=6;" vertex="1" parent="--BRvfXDEVk3b3rCjcNm-238">
          <mxGeometry x="30" width="210" height="30" as="geometry" />
        </mxCell>
        <mxCell id="--BRvfXDEVk3b3rCjcNm-241" value="" style="shape=partialRectangle;collapsible=0;dropTarget=0;pointerEvents=0;fillColor=none;points=[[0,0.5],[1,0.5]];portConstraint=eastwest;top=0;left=0;right=0;bottom=0;" vertex="1" parent="--BRvfXDEVk3b3rCjcNm-216">
          <mxGeometry y="270" width="240" height="30" as="geometry" />
        </mxCell>
        <mxCell id="--BRvfXDEVk3b3rCjcNm-242" value="" style="shape=partialRectangle;overflow=hidden;connectable=0;fillColor=none;top=0;left=0;bottom=0;right=0;" vertex="1" parent="--BRvfXDEVk3b3rCjcNm-241">
          <mxGeometry width="30" height="30" as="geometry" />
        </mxCell>
        <mxCell id="--BRvfXDEVk3b3rCjcNm-243" value="omegaup_User VARCHAR(150)" style="shape=partialRectangle;overflow=hidden;connectable=0;fillColor=none;top=0;left=0;bottom=0;right=0;align=left;spacingLeft=6;" vertex="1" parent="--BRvfXDEVk3b3rCjcNm-241">
          <mxGeometry x="30" width="210" height="30" as="geometry" />
        </mxCell>
        <mxCell id="--BRvfXDEVk3b3rCjcNm-247" value="" style="endArrow=ERone;html=1;exitX=1;exitY=0.5;exitDx=0;exitDy=0;entryX=1;entryY=0.5;entryDx=0;entryDy=0;startArrow=ERmany;startFill=0;endFill=0;" edge="1" parent="1" source="--BRvfXDEVk3b3rCjcNm-244" target="C-vyLk0tnHw3VtMMgP7b-3">
          <mxGeometry width="50" height="50" relative="1" as="geometry">
            <mxPoint x="271" y="380" as="sourcePoint" />
            <mxPoint x="241" y="110" as="targetPoint" />
            <Array as="points">
              <mxPoint x="541" y="405" />
              <mxPoint x="541" y="115" />
            </Array>
          </mxGeometry>
        </mxCell>
        <mxCell id="--BRvfXDEVk3b3rCjcNm-248" value="" style="endArrow=ERmany;html=1;exitX=1;exitY=0.5;exitDx=0;exitDy=0;entryX=0;entryY=0.5;entryDx=0;entryDy=0;endFill=0;startArrow=ERone;startFill=0;" edge="1" parent="1" source="--BRvfXDEVk3b3rCjcNm-19" target="--BRvfXDEVk3b3rCjcNm-220">
          <mxGeometry width="50" height="50" relative="1" as="geometry">
            <mxPoint x="271" y="280" as="sourcePoint" />
            <mxPoint x="321" y="230" as="targetPoint" />
            <Array as="points">
              <mxPoint x="201" y="205" />
              <mxPoint x="201" y="345" />
            </Array>
          </mxGeometry>
        </mxCell>
        <mxCell id="--BRvfXDEVk3b3rCjcNm-249" value="" style="endArrow=ERone;html=1;entryX=0;entryY=0.5;entryDx=0;entryDy=0;exitX=1;exitY=0.5;exitDx=0;exitDy=0;startArrow=ERmany;startFill=0;endFill=0;" edge="1" parent="1" source="--BRvfXDEVk3b3rCjcNm-45" target="--BRvfXDEVk3b3rCjcNm-38">
          <mxGeometry width="50" height="50" relative="1" as="geometry">
            <mxPoint x="371" y="420" as="sourcePoint" />
            <mxPoint x="421" y="370" as="targetPoint" />
            <Array as="points">
              <mxPoint x="171" y="555" />
              <mxPoint x="171" y="175" />
            </Array>
          </mxGeometry>
        </mxCell>
        <mxCell id="--BRvfXDEVk3b3rCjcNm-250" value="" style="endArrow=ERone;html=1;entryX=0;entryY=0.5;entryDx=0;entryDy=0;exitX=1;exitY=0.5;exitDx=0;exitDy=0;startArrow=ERmany;startFill=0;endFill=0;" edge="1" parent="1" source="--BRvfXDEVk3b3rCjcNm-60" target="--BRvfXDEVk3b3rCjcNm-223">
          <mxGeometry width="50" height="50" relative="1" as="geometry">
            <mxPoint x="371" y="420" as="sourcePoint" />
            <mxPoint x="421" y="370" as="targetPoint" />
            <Array as="points">
              <mxPoint x="201" y="585" />
              <mxPoint x="201" y="375" />
            </Array>
          </mxGeometry>
        </mxCell>
        <mxCell id="--BRvfXDEVk3b3rCjcNm-251" value="" style="endArrow=ERmany;html=1;entryX=1;entryY=0.5;entryDx=0;entryDy=0;exitX=0;exitY=0.5;exitDx=0;exitDy=0;startArrow=ERone;startFill=0;endFill=0;" edge="1" parent="1" source="--BRvfXDEVk3b3rCjcNm-19" target="--BRvfXDEVk3b3rCjcNm-77">
          <mxGeometry width="50" height="50" relative="1" as="geometry">
            <mxPoint x="-10" y="530" as="sourcePoint" />
            <mxPoint x="40" y="480" as="targetPoint" />
            <Array as="points">
              <mxPoint x="-190" y="205" />
              <mxPoint x="-190" y="335" />
            </Array>
          </mxGeometry>
        </mxCell>
      </root>
    </mxGraphModel>
  </diagram>
</mxfile>
